<?xml version="1.0" standalone="no"?>
<!DOCTYPE svg PUBLIC "-//W3C//DTD SVG 20010904//EN"
 "http://www.w3.org/TR/2001/REC-SVG-20010904/DTD/svg10.dtd">
<svg version="1.0" xmlns="http://www.w3.org/2000/svg"
 width="2560.000000pt" height="235.000000pt" viewBox="0 0 2560.000000 235.000000"
 preserveAspectRatio="xMidYMid meet">

<g transform="translate(0.000000,235.000000) scale(0.100000,-0.100000)"
fill="#33b38d" stroke="none">
<path d="M17029 2340 c-312 -30 -550 -256 -598 -565 -6 -42 -5 -84 5 -144 28
-172 83 -288 185 -389 81 -81 165 -133 274 -170 l80 -27 745 -5 745 -5 60 -24
c124 -50 201 -117 248 -218 17 -37 22 -67 22 -133 0 -74 -4 -92 -29 -143 -35
-68 -113 -145 -184 -181 -113 -57 -85 -56 -1099 -56 -1028 0 -983 3 -1023 -62
-41 -68 -16 -159 53 -191 32 -16 120 -17 1010 -17 1104 0 1068 -2 1223 75 242
119 385 374 354 629 -21 174 -79 294 -196 406 -80 76 -165 127 -269 161 l-70
24 -745 5 c-812 5 -766 2 -884 62 -55 28 -143 119 -166 171 -32 71 -43 173
-26 230 33 111 130 216 243 263 l68 29 895 5 c652 4 900 8 915 17 41 23 67 62
72 106 6 53 -13 96 -59 129 l-33 23 -870 1 c-478 1 -904 -2 -946 -6z"/>
<path d="M243 2326 c-85 -27 -159 -91 -205 -178 -20 -37 -23 -58 -23 -143 0
-92 2 -104 29 -152 34 -62 1294 -1655 1369 -1731 77 -78 142 -107 242 -107
133 0 232 59 296 177 l34 63 0 920 0 920 -34 63 c-40 74 -84 115 -161 151
l-55 26 -725 2 c-577 2 -734 -1 -767 -11z"/>
<path d="M2565 2330 c-57 -17 -139 -75 -176 -124 -73 -96 -70 -47 -67 -1051
l3 -900 23 -46 c35 -71 84 -122 154 -160 l63 -34 745 0 745 0 50 25 c74 36
148 114 173 183 22 58 22 61 22 952 0 891 0 894 -22 952 -25 69 -99 147 -173
183 l-50 25 -730 2 c-404 1 -743 -3 -760 -7z"/>
<path d="M6415 2333 c-416 -54 -731 -272 -870 -602 -74 -176 -99 -313 -100
-551 0 -201 15 -317 62 -460 102 -316 326 -538 648 -643 192 -63 138 -60 1110
-64 871 -3 891 -3 922 16 93 58 93 174 1 231 -32 19 -52 20 -838 20 -828 0
-910 3 -1050 41 -267 72 -455 267 -531 554 -30 114 -38 402 -15 529 67 354
262 560 611 643 61 15 176 17 935 22 964 7 896 1 940 74 37 61 15 136 -52 177
-32 20 -51 20 -888 18 -470 0 -868 -3 -885 -5z"/>
<path d="M9650 2335 c-8 -2 -49 -9 -90 -15 -41 -7 -118 -26 -170 -42 -392
-124 -629 -403 -707 -832 -23 -125 -23 -417 0 -542 85 -467 357 -752 826 -867
82 -19 118 -21 706 -24 429 -3 649 -1 713 7 437 54 760 297 890 670 58 165 67
232 67 485 0 253 -9 320 -67 485 -100 286 -313 498 -608 605 -193 69 -178 68
-895 71 -357 1 -657 1 -665 -1z m1230 -275 c366 -45 595 -238 688 -579 24 -89
26 -111 26 -306 0 -195 -2 -217 -26 -306 -93 -341 -322 -534 -688 -579 -111
-13 -1089 -13 -1200 0 -306 38 -515 179 -631 425 -20 44 -48 121 -60 170 -21
80 -24 112 -24 290 0 177 3 210 23 290 89 344 322 549 677 594 101 12 1112 13
1215 1z"/>
<path d="M12460 2318 c-75 -50 -70 37 -70 -1200 l0 -1108 135 0 135 0 0 930
c0 512 3 930 7 930 5 0 318 -310 698 -689 502 -501 699 -692 724 -700 82 -27
55 -50 809 702 l692 692 0 -933 0 -932 135 0 135 0 0 1098 0 1098 -22 44 c-13
24 -35 52 -49 63 -36 26 -99 33 -135 14 -16 -9 -369 -356 -784 -771 l-755
-756 -766 766 c-752 752 -767 766 -810 771 -35 4 -51 0 -79 -19z"/>
<path d="M20440 2325 c-249 -40 -450 -136 -608 -289 -212 -205 -312 -481 -312
-861 0 -384 101 -660 317 -866 128 -123 276 -203 463 -253 164 -44 234 -48
895 -43 673 4 654 3 840 64 322 105 546 327 648 643 46 141 62 260 62 455 0
326 -66 555 -215 754 -147 194 -341 313 -630 384 -81 20 -115 21 -730 23 -508
2 -663 0 -730 -11z m1290 -265 c398 -49 635 -272 706 -665 18 -103 18 -337 0
-440 -61 -335 -250 -555 -546 -634 -133 -36 -230 -41 -760 -41 -639 0 -730 10
-903 96 -277 139 -417 408 -417 799 0 512 250 826 705 884 101 12 1112 13
1215 1z"/>
<path d="M23343 2324 c-18 -9 -42 -31 -53 -49 -20 -32 -20 -49 -20 -1149 l0
-1116 1093 0 c710 0 1105 4 1129 10 116 33 134 190 28 245 -25 13 -163 15
-1005 15 l-975 0 0 973 c0 905 -1 974 -18 1007 -35 70 -111 97 -179 64z"/>
</g>
</svg>
