<?xml version="1.0" encoding="utf-8"?>
<!-- Svg Vector Icons : http://www.onlinewebfonts.com/icon -->
<!DOCTYPE svg PUBLIC "-//W3C//DTD SVG 1.1//EN" "http://www.w3.org/Graphics/SVG/1.1/DTD/svg11.dtd">
<svg version="1.1" xmlns="http://www.w3.org/2000/svg" xmlns:xlink="http://www.w3.org/1999/xlink" x="0px" y="0px" viewBox="0 0 256 256" enable-background="new 0 0 256 256" xml:space="preserve">
<metadata> Svg Vector Icons : http://www.onlinewebfonts.com/icon </metadata>
<g><g><g><path fill="#33b38d" d="M64.9,18.5c-6.5,2.4-11.1,8.9-10.5,15.1c0.5,4.9,4.1,10,8.9,12.3c3.3,1.6,8.3,1.6,11.5,0c2.9-1.4,6.2-4.7,7.6-7.6c0.9-1.8,1.1-3,1.1-5.8c0-4.2-1.2-7-4.3-10.1C75.2,18.4,69.4,16.9,64.9,18.5z M73.5,26.4c2,1.5,3,3.7,2.7,6.8c-0.3,4.6-3,7-7.8,6.6c-4.6-0.3-7-3-6.6-7.8c0.2-3,1.2-4.7,3.6-6C67.4,24.8,71.7,25.1,73.5,26.4z"/><path fill="#33b38d" d="M32.1,36.2v3.7h3.7h3.7v-3.7v-3.7h-3.7h-3.7L32.1,36.2L32.1,36.2z"/><path fill="#33b38d" d="M35.4,48c-6.5,2.4-11.1,8.9-10.5,15.1c0.5,4.9,4.1,10,8.8,12.3C37,77,42,77,45.3,75.4c2.9-1.4,6.2-4.7,7.6-7.6c1.6-3.3,1.6-8.3,0-11.5c-1.4-2.9-4.7-6.2-7.6-7.6C42.3,47.3,38.1,47,35.4,48z M44,55.9c2,1.5,3,3.7,2.7,6.8c-0.3,4.6-3,7-7.8,6.6c-4.6-0.3-7-3-6.6-7.8c0.2-3,1.2-4.7,3.6-6C37.9,54.3,42.2,54.6,44,55.9z"/><path fill="#33b38d" d="M91.1,51v3.7h3.7h3.7V51v-3.7h-3.7h-3.7L91.1,51L91.1,51z"/><path fill="#33b38d" d="M113.3,51v3.7h3.7h3.7V91v36.3l-3.7,5.3l-3.7,5.3v-15.8v-15.8H61.6H10v6v6l7.4,12.9l7.4,12.9v35.6c0,38.6,0,39.2,2.5,44.2c0.7,1.4,2.2,3.7,3.3,5.1l2,2.7H21.3H10v3.2v3.2h118h118v-3.2v-3.2h-29.5h-29.5l3.2-3.2c6.9-6.7,10.8-14.9,11.4-24l0.2-3.5L176,164.1l-25.9-36.8V91V54.7h3.7h3.7V51v-3.7h-22.1h-22.1L113.3,51L113.3,51z M142.8,62v7.4h-3.7h-3.7v3.7v3.7h3.7h3.7v3.7v3.7h-3.7h-3.7v3.7v3.7h3.7h3.7v3.7v3.7h-3.7h-3.7v3.7v3.7h3.7h3.7v3.7v3.7h-3.7h-3.7v3.7v3.7h3.7h3.7v4.2v4.3l24,34.2c13.2,18.9,24,34.3,24,34.5c0,0.1-15.8,0.2-35,0.2h-35v3.7v3.7l36.8,0.1l36.8,0.1l-0.6,3c-1.6,8-7.6,15.7-15,19.3c-6.6,3.3-6.5,3.3-41.8,3.3h-31.5l2.1-2.7c2.5-3.2,4.6-7.7,5.3-11.4c0.3-1.8,0.5-13.6,0.5-34.8v-32.2l7.4-10.5l7.4-10.5V92.1V54.7h7.4h7.4L142.8,62L142.8,62z M105.9,131v17.3l-4.6,6.6l-4.7,6.6H64.4H32.1v-3.7v-3.7h7.4h7.4v-3.7v-3.7h-7.4h-7.4v-2.3c0-2.2-0.6-3.3-7.4-15.2c-5.1-8.9-7.4-13.3-7.4-14.3v-1.4h44.3h44.3V131z M105.8,195.3l-0.1,22.8l-1.4,3c-1.8,3.7-4.1,6.4-6.9,7.8l-2.1,1.1l-3.6-1.8c-7.1-3.6-13-11.3-14.6-19.1l-0.6-3l11-0.1l11-0.1v-3.7v-3.7h-9.2c-5.1,0-9.2-0.1-9.2-0.2c0-0.1,5.8-8.5,12.8-18.5l12.8-18.3l0.1,5.5C105.8,169.9,105.8,182.7,105.8,195.3z M91.1,169.2c0,0.1-5,7.3-11.1,16L69,201l0.2,3.3c0.6,9.3,4.6,17.6,11.6,24.3l3.2,3.1l-19.1-0.1l-19.1-0.1l-3.5-1.8c-6-3-10-8.9-10-15.2v-1.2h7.4h7.4v-3.7v-3.7h-7.4h-7.4v-3.7v-3.7h7.4h7.4v-3.7v-3.7h-7.4h-7.4v-3.7v-3.7h7.4h7.4V180v-3.7h-7.4h-7.4v-3.7V169h29.5C77.8,169,91.1,169.1,91.1,169.2z"/><path fill="#33b38d" d="M172.9,55.3c-3.4,1.3-6.4,4.3-7.5,7.7c-0.4,1.1-0.6,9.4-0.6,28.7v27.1l1.2,1.1c2,2.1,2.9,1.7,14.5-6.1l10.8-7.2l23-0.2c25.7-0.3,24.6-0.1,28-3.5c3.4-3.4,3.3-3,3.3-22.3s0-18.9-3.3-22.3c-3.5-3.5-1.3-3.3-36.6-3.4C182.5,54.8,174,54.9,172.9,55.3z M237.7,63c0.9,0.9,0.9,1.5,0.9,17.5c0,16,0,16.6-0.9,17.5c-0.9,0.9-1.5,0.9-24.6,0.9h-23.6l-8.7,5.8l-8.6,5.8V87.2c0-22.7,0-23.3,0.9-24.2c0.9-0.9,1.5-0.9,32.3-0.9S236.8,62,237.7,63z"/><path fill="#33b38d" d="M187,80.5v3.7h3.7h3.7v-3.7v-3.7h-3.7H187V80.5z"/><path fill="#33b38d" d="M201.8,80.5v3.7h3.7h3.7v-3.7v-3.7h-3.7h-3.7V80.5L201.8,80.5z"/><path fill="#33b38d" d="M216.5,80.5v3.7h3.7h3.7v-3.7v-3.7h-3.7h-3.7V80.5z"/><path fill="#33b38d" d="M76.2,62.5c-5.3,1.3-10.4,5.6-12.9,11c-1.3,2.7-1.5,3.5-1.5,7c0,3.5,0.2,4.3,1.5,7c2,4.3,5,7.4,9.3,9.5c3.2,1.6,3.8,1.7,7.4,1.7c3.6,0,4.2-0.1,7.4-1.7c4.3-2.1,7.3-5.2,9.3-9.5c1.3-2.7,1.5-3.5,1.5-7c0-3.5-0.2-4.3-1.5-7c-3-6.5-9.1-10.8-15.6-11.2C79.4,62.2,77.2,62.3,76.2,62.5z M84.3,70.1c7.3,2.6,9.3,12.6,3.6,18.2c-4.3,4.3-11.4,4.3-15.8,0.1c-4.1-4.1-4.1-11.9,0-15.9C75.1,69.6,80,68.6,84.3,70.1z"/><path fill="#33b38d" d="M46.9,87.9v3.7h3.7h3.7v-3.7v-3.7h-3.7h-3.7V87.9z"/></g></g></g>
</svg>